<svg width="50" height="67" viewBox="0 0 50 67" fill="none" xmlns="http://www.w3.org/2000/svg">
<g clip-path="url(#clip0_1414_360)">
<path d="M24.7254 0.4729C24.5857 0.611282 20.4836 13.3854 20.0853 14.4868L11.3452 14.4809C9.30738 14.481 7.20371 14.4525 5.17464 14.4945C5.55475 14.8072 6.1757 15.2259 6.58649 15.5215L9.36541 17.5209L17.2247 23.17C16.8408 24.5272 16.2995 25.993 15.8709 27.3505C14.8337 30.6357 13.6478 33.9446 12.636 37.2314C13.1446 36.8976 13.7456 36.4431 14.2455 36.0835L17.2131 33.9488C19.6778 32.1754 22.2063 30.3923 24.6433 28.5899L24.6926 28.5771C24.909 28.6462 27.2786 30.4068 27.5927 30.6328L36.7707 37.2338C36.3928 35.9285 35.8925 34.5714 35.4816 33.2657C34.4254 29.909 33.2041 26.5243 32.1815 23.1646C33.3407 22.4081 34.6928 21.3576 35.8393 20.5472C38.6553 18.5566 41.4387 16.4764 44.2603 14.496C42.4822 14.4571 40.6264 14.4812 38.8431 14.481L29.3124 14.4811C27.8383 9.81415 26.1764 5.13675 24.7254 0.4729Z" fill="#0B109F"/>
<path opacity="0.9" d="M24.7104 11.8512C24.4932 12.3112 24.2018 13.316 24.0252 13.8556L22.6705 17.992L16.083 17.9959C17.797 19.3027 19.6814 20.5599 21.4232 21.8569C21.1592 22.5077 20.959 23.2223 20.7322 23.8922C20.2667 25.2689 19.8402 26.672 19.3718 28.0462L24.6938 24.2138C25.1423 24.4791 26.0384 25.163 26.4984 25.495L30.0281 28.044C29.3676 25.9753 28.6909 23.9118 27.998 21.8536C28.5432 21.4141 29.3209 20.8876 29.9007 20.4709L33.3359 17.999L26.7361 17.9903C26.0231 16.0094 25.4374 13.8542 24.7104 11.8512Z" fill="white"/>
<path d="M48.9165 41.4734C48.7583 41.5379 47.3855 42.5079 47.1642 42.6612L42.7389 45.7251L24.6944 58.2074C23.8866 57.5877 22.7462 56.8438 21.8869 56.2495L16.606 52.597L0.588173 41.5165V49.3033C0.786727 49.4689 1.2572 49.7751 1.48726 49.9337L3.26223 51.1601L8.92992 55.081L19.2017 62.1867C21.0156 63.4415 22.8793 64.769 24.7102 65.9892C29.6336 62.6577 34.592 59.1544 39.4887 55.7661L45.573 51.56C46.6497 50.8161 47.8761 50.0061 48.9171 49.2342C48.8903 46.661 48.9147 44.0487 48.9165 41.4734Z" fill="#897F3A"/>
<path d="M33.2189 39.7276L24.7004 45.6213C21.9803 43.6542 18.9689 41.6465 16.1874 39.7227C14.4456 41.0748 12.4427 42.3534 10.6802 43.7052L16.1928 47.5188C19.0178 49.4982 21.8539 51.4611 24.7012 53.4084C26.1421 52.4713 27.7575 51.2979 29.1829 50.3119L38.7385 43.7056C36.967 42.376 35.0252 41.0304 33.2189 39.7276Z" fill="#897F3A"/>
<path d="M48.9109 16.2949C48.7486 16.3824 48.5381 16.5402 48.3842 16.6483C47.1645 17.5051 45.9278 18.337 44.7174 19.2066L37.0304 24.7434L38.5184 29.2898C38.6884 29.83 38.8676 30.3675 39.0558 30.9018C42.3066 28.5985 45.6773 26.3816 48.9163 24.0711L48.9109 16.2949Z" fill="#897F3A"/>
<path d="M0.638966 16.3855L0.604148 16.419C0.553577 16.7888 0.585497 18.3918 0.585497 18.8333L0.587567 24.1497C3.798 26.2838 7.18461 28.6985 10.3635 30.9083L10.8523 29.3889C11.3833 27.9357 11.8948 26.2324 12.3818 24.7425C8.50361 21.9071 4.58932 19.1212 0.638966 16.3855Z" fill="#897F3A"/>
<path d="M48.9076 28.8723C46.0758 30.8216 43.1225 32.8235 40.3324 34.8111L41.9029 39.6033L42.4181 41.1618C42.7298 40.9271 43.0715 40.7146 43.3888 40.4857C45.1992 39.1808 47.1241 37.9721 48.9179 36.6495C48.8914 34.0721 48.9596 31.4406 48.9076 28.8723Z" fill="#897F3A"/>
<path d="M0.640038 28.9622L0.605635 28.9957C0.55838 29.3169 0.584909 30.947 0.584909 31.3922L0.590713 36.7293C2.67905 38.213 4.87517 39.691 6.98879 41.1537C7.17615 40.6391 7.3403 40.1131 7.50859 39.5919L9.08252 34.8125C8.2626 34.205 7.24869 33.5404 6.39893 32.9527L0.640038 28.9622Z" fill="#897F3A"/>
<path d="M24.7127 33.6041C24.5735 33.6756 23.356 34.57 23.1869 34.6941C22.0026 35.5625 20.764 36.41 19.5963 37.2912L24.6879 40.8113C24.8417 40.7542 25.979 39.9462 26.1822 39.8056L29.819 37.2866C28.1375 36.0463 26.4017 34.8433 24.7127 33.6041Z" fill="#897F3A"/>
</g>
<defs>
<clipPath id="clip0_1414_360">
<rect width="49.521" height="66.028" fill="white" transform="matrix(-1 0 0 1 49.521 0)"/>
</clipPath>
</defs>
</svg>
