<svg width="163" height="170" viewBox="0 0 163 170" fill="none" xmlns="http://www.w3.org/2000/svg">
<g opacity="0.2" clip-path="url(#clip0_1426_79)">
<path d="M61.3702 17.7197L53.4902 22.2697L62.2502 22.5097L61.3702 17.7197Z" stroke="#FB5802" stroke-linecap="round" stroke-linejoin="round"/>
<path d="M53.4902 22.2695L60.3402 55.7295L62.2502 22.5095L53.4902 22.2695Z" stroke="#FB5802" stroke-linecap="round" stroke-linejoin="round"/>
<path d="M0.5 62.1095L36.69 69.8595L53.49 22.2695L0.5 62.1095Z" stroke="#FB5802" stroke-linecap="round" stroke-linejoin="round"/>
<path d="M36.69 69.8604L3.20996 101L57.7 107.75L36.69 69.8604Z" stroke="#FB5802" stroke-linecap="round" stroke-linejoin="round"/>
<path d="M64.7002 15.4304L70.4802 12.5304L74.2702 5.90039L64.7002 15.4304Z" stroke="#FB5802" stroke-linecap="round" stroke-linejoin="round"/>
<path d="M53.4899 22.2695L36.6899 69.8595L60.3399 55.7295L53.4899 22.2695Z" stroke="#FB5802" stroke-linecap="round" stroke-linejoin="round"/>
<path d="M36.6899 69.8605L58.8299 61.8105L60.3399 55.7305L36.6899 69.8605Z" stroke="#FB5802" stroke-linecap="round" stroke-linejoin="round"/>
<path d="M57.7 107.75L35.42 136L61.38 135.45L57.7 107.75Z" stroke="#FB5802" stroke-linecap="round" stroke-linejoin="round"/>
<path d="M58.8301 61.8096L65.5401 104.94L80.7601 71.3396L58.8301 61.8096Z" stroke="#FB5802" stroke-linecap="round" stroke-linejoin="round"/>
<path d="M61.3701 17.7197L62.2501 22.5097L64.7001 15.4297L61.3701 17.7197Z" stroke="#FB5802" stroke-linecap="round" stroke-linejoin="round"/>
<path d="M36.6899 69.8604L57.6999 107.75L65.5399 104.94L36.6899 69.8604Z" stroke="#FB5802" stroke-linecap="round" stroke-linejoin="round"/>
<path d="M58.8299 61.8096L36.6899 69.8596L65.5399 104.94L58.8299 61.8096Z" stroke="#FB5802" stroke-linecap="round" stroke-linejoin="round"/>
<path d="M70.48 12.53L79.37 26.47L84.47 7.41998L70.48 12.53Z" stroke="#FB5802" stroke-linecap="round" stroke-linejoin="round"/>
<path d="M74.27 5.90039L70.48 12.5304L84.47 7.42039L74.27 5.90039Z" stroke="#FB5802" stroke-linecap="round" stroke-linejoin="round"/>
<path d="M57.7 107.75L61.38 135.45L69.95 132.01L57.7 107.75Z" stroke="#FB5802" stroke-linecap="round" stroke-linejoin="round"/>
<path d="M57.7 107.75L69.95 132.01L78.93 123.52L57.7 107.75Z" stroke="#FB5802" stroke-linecap="round" stroke-linejoin="round"/>
<path d="M61.38 135.45L62.22 153.45L74.71 142.34L61.38 135.45Z" stroke="#FB5802" stroke-linecap="round" stroke-linejoin="round"/>
<path d="M69.95 132.01L61.38 135.45L74.71 142.34L69.95 132.01Z" stroke="#FB5802" stroke-linecap="round" stroke-linejoin="round"/>
<path d="M65.5402 104.94L57.7002 107.75L78.9302 123.52L65.5402 104.94Z" stroke="#FB5802" stroke-linecap="round" stroke-linejoin="round"/>
<path d="M62.25 22.51L60.34 55.73L79.37 26.47L62.25 22.51Z" stroke="#FB5802" stroke-linecap="round" stroke-linejoin="round"/>
<path d="M64.7 15.4297L62.25 22.5097L79.37 26.4697L64.7 15.4297Z" stroke="#FB5802" stroke-linecap="round" stroke-linejoin="round"/>
<path d="M70.4802 12.5303L64.7002 15.4303L79.3702 26.4703L70.4802 12.5303Z" stroke="#FB5802" stroke-linecap="round" stroke-linejoin="round"/>
<path d="M60.3401 55.7305L58.8301 61.8105L80.7601 71.3405L60.3401 55.7305Z" stroke="#FB5802" stroke-linecap="round" stroke-linejoin="round"/>
<path d="M65.54 104.94L78.93 123.52L83.4 121.08L65.54 104.94Z" stroke="#FB5802" stroke-linecap="round" stroke-linejoin="round"/>
<path d="M74.27 5.89953L84.47 7.41953L88.46 3.26953L74.27 5.89953Z" stroke="#FB5802" stroke-linecap="round" stroke-linejoin="round"/>
<path d="M78.93 123.52L74.71 142.34L91.58 143.64L78.93 123.52Z" stroke="#FB5802" stroke-linecap="round" stroke-linejoin="round"/>
<path d="M83.4 121.08L78.93 123.52L91.58 143.64L83.4 121.08Z" stroke="#FB5802" stroke-linecap="round" stroke-linejoin="round"/>
<path d="M74.71 142.34L75.24 158.82L91.58 143.64L74.71 142.34Z" stroke="#FB5802" stroke-linecap="round" stroke-linejoin="round"/>
<path d="M79.3701 26.4695L103.69 40.4995L109.58 15.5195L79.3701 26.4695Z" stroke="#FB5802" stroke-linecap="round" stroke-linejoin="round"/>
<path d="M101.34 110.2L108.81 126.28L114.6 126.72L101.34 110.2Z" stroke="#FB5802" stroke-linecap="round" stroke-linejoin="round"/>
<path d="M80.76 71.34L65.54 104.94L101.34 110.2L80.76 71.34Z" stroke="#FB5802" stroke-linecap="round" stroke-linejoin="round"/>
<path d="M65.54 104.94L83.4 121.08L101.34 110.2L65.54 104.94Z" stroke="#FB5802" stroke-linecap="round" stroke-linejoin="round"/>
<path d="M79.3701 26.4697L103.62 45.6297L103.69 40.4997L79.3701 26.4697Z" stroke="#FB5802" stroke-linecap="round" stroke-linejoin="round"/>
<path d="M101.34 110.2L83.4 121.08L108.81 126.28L101.34 110.2Z" stroke="#FB5802" stroke-linecap="round" stroke-linejoin="round"/>
<path d="M79.3698 26.4697L60.3398 55.7297L103.62 45.6297L79.3698 26.4697Z" stroke="#FB5802" stroke-linecap="round" stroke-linejoin="round"/>
<path d="M60.34 55.73L80.76 71.34L103.62 45.63L60.34 55.73Z" stroke="#FB5802" stroke-linecap="round" stroke-linejoin="round"/>
<path d="M84.47 7.41998L79.37 26.47L109.58 15.52L84.47 7.41998Z" stroke="#FB5802" stroke-linecap="round" stroke-linejoin="round"/>
<path d="M88.4602 3.26953L84.4702 7.41953L109.58 15.5195L88.4602 3.26953Z" stroke="#FB5802" stroke-linecap="round" stroke-linejoin="round"/>
<path d="M83.4 121.08L91.58 143.64L108.81 126.28L83.4 121.08Z" stroke="#FB5802" stroke-linecap="round" stroke-linejoin="round"/>
<path d="M143.33 91.66L142.22 104.94L144.56 107.54L143.33 91.66Z" stroke="#FB5802" stroke-linecap="round" stroke-linejoin="round"/>
<path d="M80.76 71.34L101.34 110.2L114.44 92.1L80.76 71.34Z" stroke="#FB5802" stroke-linecap="round" stroke-linejoin="round"/>
<path d="M91.58 143.64L75.25 169.21L119.43 143.34L91.58 143.64Z" stroke="#FB5802" stroke-linecap="round" stroke-linejoin="round"/>
<path d="M109.58 15.5195L103.69 40.4995L115.55 41.9695L109.58 15.5195Z" stroke="#FB5802" stroke-linecap="round" stroke-linejoin="round"/>
<path d="M112.37 6.96L123.69 1.57L124.78 0.5L112.37 6.96Z" stroke="#FB5802" stroke-linecap="round" stroke-linejoin="round"/>
<path d="M88.46 3.27L112.37 6.96L124.78 0.5L88.46 3.27Z" stroke="#FB5802" stroke-linecap="round" stroke-linejoin="round"/>
<path d="M136.98 131.19L119.43 143.34L143.03 139.62L136.98 131.19Z" stroke="#FB5802" stroke-linecap="round" stroke-linejoin="round"/>
<path d="M124.78 0.5L123.69 1.57L130.31 35.72L124.78 0.5Z" stroke="#FB5802" stroke-linecap="round" stroke-linejoin="round"/>
<path d="M114.6 126.72L108.81 126.28L119.43 143.34L114.6 126.72Z" stroke="#FB5802" stroke-linecap="round" stroke-linejoin="round"/>
<path d="M123.96 80.4004L114.44 92.1004L131.09 86.5204L123.96 80.4004Z" stroke="#FB5802" stroke-linecap="round" stroke-linejoin="round"/>
<path d="M108.81 126.28L91.5801 143.64L119.43 143.34L108.81 126.28Z" stroke="#FB5802" stroke-linecap="round" stroke-linejoin="round"/>
<path d="M123.69 1.57031L109.58 15.5203L130.31 35.7203L123.69 1.57031Z" stroke="#FB5802" stroke-linecap="round" stroke-linejoin="round"/>
<path d="M157.04 41.9805L150.71 47.2105L160 78.4705L157.04 41.9805Z" stroke="#FB5802" stroke-linecap="round" stroke-linejoin="round"/>
<path d="M109.58 15.5195L115.55 41.9695L130.31 35.7195L109.58 15.5195Z" stroke="#FB5802" stroke-linecap="round" stroke-linejoin="round"/>
<path d="M114.6 126.72L119.43 143.34L136.98 131.19L114.6 126.72Z" stroke="#FB5802" stroke-linecap="round" stroke-linejoin="round"/>
<path d="M115.55 41.9697L103.62 45.6297L131.35 54.7197L115.55 41.9697Z" stroke="#FB5802" stroke-linecap="round" stroke-linejoin="round"/>
<path d="M130.31 35.7197L115.55 41.9697L131.35 54.7197L130.31 35.7197Z" stroke="#FB5802" stroke-linecap="round" stroke-linejoin="round"/>
<path d="M142.22 104.94L136.98 131.19L144.56 107.54L142.22 104.94Z" stroke="#FB5802" stroke-linecap="round" stroke-linejoin="round"/>
<path d="M149.22 45.16L131.35 54.72L150.71 47.21L149.22 45.16Z" stroke="#FB5802" stroke-linecap="round" stroke-linejoin="round"/>
<path d="M149.22 45.1605L150.71 47.2105L157.04 41.9805L149.22 45.1605Z" stroke="#FB5802" stroke-linecap="round" stroke-linejoin="round"/>
<path d="M144.22 33.3203L149.22 45.1603L157.04 41.9803L144.22 33.3203Z" stroke="#FB5802" stroke-linecap="round" stroke-linejoin="round"/>
<path d="M124.78 0.5L130.31 35.72L142.47 33.01L124.78 0.5Z" stroke="#FB5802" stroke-linecap="round" stroke-linejoin="round"/>
<path d="M114.6 126.72L136.98 131.19L142.22 104.94L114.6 126.72Z" stroke="#FB5802" stroke-linecap="round" stroke-linejoin="round"/>
<path d="M114.44 92.0996L114.6 126.72L142.22 104.94L114.44 92.0996Z" stroke="#FB5802" stroke-linecap="round" stroke-linejoin="round"/>
<path d="M131.09 86.5195L114.44 92.0995L142.22 104.94L131.09 86.5195Z" stroke="#FB5802" stroke-linecap="round" stroke-linejoin="round"/>
<path d="M124.78 0.5L142.47 33.01L144.22 33.32L124.78 0.5Z" stroke="#FB5802" stroke-linecap="round" stroke-linejoin="round"/>
<path d="M131.09 86.5195L142.22 104.94L143.33 91.6595L131.09 86.5195Z" stroke="#FB5802" stroke-linecap="round" stroke-linejoin="round"/>
<path d="M143.03 139.62L119.43 143.34L145.94 163.54L143.03 139.62Z" stroke="#FB5802" stroke-linecap="round" stroke-linejoin="round"/>
<path d="M136.98 131.19L143.03 139.62L148.98 112.42L136.98 131.19Z" stroke="#FB5802" stroke-linecap="round" stroke-linejoin="round"/>
<path d="M144.56 107.54L136.98 131.19L148.98 112.42L144.56 107.54Z" stroke="#FB5802" stroke-linecap="round" stroke-linejoin="round"/>
<path d="M130.31 35.7197L131.35 54.7197L149.22 45.1597L130.31 35.7197Z" stroke="#FB5802" stroke-linecap="round" stroke-linejoin="round"/>
<path d="M142.47 33.01L130.31 35.72L149.22 45.16L142.47 33.01Z" stroke="#FB5802" stroke-linecap="round" stroke-linejoin="round"/>
<path d="M144.22 33.32L142.47 33.01L149.22 45.16L144.22 33.32Z" stroke="#FB5802" stroke-linecap="round" stroke-linejoin="round"/>
<path d="M150.71 47.21L131.35 54.72L160 78.47L150.71 47.21Z" stroke="#FB5802" stroke-linecap="round" stroke-linejoin="round"/>
<path d="M131.09 86.5197L143.33 91.6597L160 78.4697L131.09 86.5197Z" stroke="#FB5802" stroke-linecap="round" stroke-linejoin="round"/>
<path d="M143.33 91.66L144.56 107.54L161.98 89.51L143.33 91.66Z" stroke="#FB5802" stroke-linecap="round" stroke-linejoin="round"/>
</g>
<defs>
<clipPath id="clip0_1426_79">
<rect width="162.48" height="169.71" fill="white"/>
</clipPath>
</defs>
</svg>
