<svg width="3508" height="1542" viewBox="0 0 3508 1542" fill="none" xmlns="http://www.w3.org/2000/svg">
<g opacity="0.1">
<path d="M1573.49 2.99414L876.815 1538.98" stroke="white" stroke-width="1.00389" stroke-linecap="round" stroke-linejoin="round"/>
<path d="M1033.19 2.99398L0.505743 572.937" stroke="white" stroke-width="1.00389" stroke-linecap="round" stroke-linejoin="round"/>
<path d="M853.089 2.99398L0.505743 379.466" stroke="white" stroke-width="1.00389" stroke-linecap="round" stroke-linejoin="round"/>
<path d="M673.004 2.99398L0.502081 250.467" stroke="white" stroke-width="1.00389" stroke-linecap="round" stroke-linejoin="round"/>
<path d="M1213.3 2.99398L0.502814 895.323" stroke="white" stroke-width="1.00389" stroke-linecap="round" stroke-linejoin="round"/>
<path d="M492.904 2.99398L0.502081 158.312" stroke="white" stroke-width="1.00389" stroke-linecap="round" stroke-linejoin="round"/>
<path d="M132.697 2.99398L0.502081 35.4319" stroke="white" stroke-width="1.00389" stroke-linecap="round" stroke-linejoin="round"/>
<path d="M312.801 2.99398L0.502081 89.1872" stroke="white" stroke-width="1.00389" stroke-linecap="round" stroke-linejoin="round"/>
<path d="M3014.28 2.99414L3507.3 158.594" stroke="white" stroke-width="1.00389" stroke-linecap="round" stroke-linejoin="round"/>
<path d="M1753.59 2.99414L1752.39 1538.98" stroke="white" stroke-width="1.00389" stroke-linecap="round" stroke-linejoin="round"/>
<path d="M3194.39 2.99414L3507.3 89.391" stroke="white" stroke-width="1.00389" stroke-linecap="round" stroke-linejoin="round"/>
<path d="M3374.48 2.99414L3507.3 35.5937" stroke="white" stroke-width="1.00389" stroke-linecap="round" stroke-linejoin="round"/>
<path d="M2834.18 2.99414L3507.3 250.844" stroke="white" stroke-width="1.00389" stroke-linecap="round" stroke-linejoin="round"/>
<path d="M2654.08 2.99414L3507.3 379.987" stroke="white" stroke-width="1.00389" stroke-linecap="round" stroke-linejoin="round"/>
<path d="M2293.89 2.99414L3507.3 896.809" stroke="white" stroke-width="1.00389" stroke-linecap="round" stroke-linejoin="round"/>
<path d="M2473.99 2.99414L3507.3 573.775" stroke="white" stroke-width="1.00389" stroke-linecap="round" stroke-linejoin="round"/>
<path d="M1933.7 2.99414L2627.97 1538.98" stroke="white" stroke-width="1.00389" stroke-linecap="round" stroke-linejoin="round"/>
<path d="M1393.38 2.99414L1.24866 1538.98" stroke="white" stroke-width="1.00389" stroke-linecap="round" stroke-linejoin="round"/>
<path d="M2113.78 2.99414L3503.53 1538.98" stroke="white" stroke-width="1.00389" stroke-linecap="round" stroke-linejoin="round"/>
<path d="M3503.54 1538.98H1.25379" stroke="white" stroke-width="1.00389" stroke-linecap="round" stroke-linejoin="round"/>
<path d="M3507.29 212.616H0.505499" stroke="white" stroke-width="1.00389" stroke-linecap="round" stroke-linejoin="round"/>
<path d="M3507.29 72.0434H0.505499" stroke="white" stroke-width="1.00389" stroke-linecap="round" stroke-linejoin="round"/>
<path d="M3507.29 100.706H0.505499" stroke="white" stroke-width="1.00389" stroke-linecap="round" stroke-linejoin="round"/>
<path d="M3507.29 133.119H0.505499" stroke="white" stroke-width="1.00389" stroke-linecap="round" stroke-linejoin="round"/>
<path d="M3507.29 23.6293H0.505499" stroke="white" stroke-width="1.00389" stroke-linecap="round" stroke-linejoin="round"/>
<path d="M3507.29 46.5129H0.505011" stroke="white" stroke-width="1.00389" stroke-linecap="round" stroke-linejoin="round"/>
<path d="M3507.29 1132.36H0.505499" stroke="white" stroke-width="1.00389" stroke-linecap="round" stroke-linejoin="round"/>
<path d="M3507.29 262.06H0.505011" stroke="white" stroke-width="1.00389" stroke-linecap="round" stroke-linejoin="round"/>
<path d="M3507.29 170.092H0.505499" stroke="white" stroke-width="1.00389" stroke-linecap="round" stroke-linejoin="round"/>
<path d="M3507.29 2.99456H0.505024" stroke="white" stroke-width="1.00389" stroke-linecap="round" stroke-linejoin="round"/>
<path d="M3507.29 320.265H0.505011" stroke="white" stroke-width="1.00389" stroke-linecap="round" stroke-linejoin="round"/>
<path d="M3507.29 389.805H0.505499" stroke="white" stroke-width="1.00389" stroke-linecap="round" stroke-linejoin="round"/>
<path d="M3507.29 889.309H0.505499" stroke="white" stroke-width="1.00389" stroke-linecap="round" stroke-linejoin="round"/>
<path d="M3507.29 474.325H0.505499" stroke="white" stroke-width="1.00389" stroke-linecap="round" stroke-linejoin="round"/>
<path d="M3507.29 579.254H0.505011" stroke="white" stroke-width="1.00389" stroke-linecap="round" stroke-linejoin="round"/>
<path d="M3507.29 712.997H0.505499" stroke="white" stroke-width="1.00389" stroke-linecap="round" stroke-linejoin="round"/>
</g>
</svg>
