<svg width="1920" height="1275" viewBox="0 0 1920 1275" fill="none" xmlns="http://www.w3.org/2000/svg">
<g clip-path="url(#clip0_1424_85)">
<rect width="1920" height="1275" fill="#07080C"/>
<g opacity="0.08" clip-path="url(#clip1_1424_85)">
<path d="M960.494 -16.443V1326.41" stroke="white" stroke-width="1.23568" stroke-linecap="round" stroke-linejoin="round"/>
<path d="M833.363 -16.443L161.632 1326.41" stroke="white" stroke-width="1.23568" stroke-linecap="round" stroke-linejoin="round"/>
<path d="M1085.83 -16.443L1755.26 1326.41" stroke="white" stroke-width="1.23568" stroke-linecap="round" stroke-linejoin="round"/>
<path d="M454.302 -16.443L-635.311 528.324" stroke="white" stroke-width="1.23568" stroke-linecap="round" stroke-linejoin="round"/>
<path d="M580.877 -16.443L-635.314 794.929" stroke="white" stroke-width="1.23568" stroke-linecap="round" stroke-linejoin="round"/>
<path d="M707.11 -16.443L-635.234 1326.49" stroke="white" stroke-width="1.23568" stroke-linecap="round" stroke-linejoin="round"/>
<path d="M-635.312 130.538L454.301 -142.444" stroke="white" stroke-width="1.23568" stroke-linecap="round" stroke-linejoin="round"/>
<path d="M1465.98 -16.443L2556.31 528.265" stroke="white" stroke-width="1.23568" stroke-linecap="round" stroke-linejoin="round"/>
<path d="M1338.31 -16.443L2556.31 797.064" stroke="white" stroke-width="1.23568" stroke-linecap="round" stroke-linejoin="round"/>
<path d="M2556.31 130.86L1465.98 -142.521" stroke="white" stroke-width="1.23568" stroke-linecap="round" stroke-linejoin="round"/>
<path d="M1212.08 -16.443L2552.06 1326.41" stroke="white" stroke-width="1.23568" stroke-linecap="round" stroke-linejoin="round"/>
<path fill-rule="evenodd" clip-rule="evenodd" d="M-469.957 445.654H2390.95V-984.716H-469.957V445.654Z" stroke="white" stroke-width="1.23568" stroke-linecap="round" stroke-linejoin="round"/>
<path fill-rule="evenodd" clip-rule="evenodd" d="M-333.32 377.339H2254.21V-916.414H-333.32V377.339Z" stroke="white" stroke-width="1.23568" stroke-linecap="round" stroke-linejoin="round"/>
<path fill-rule="evenodd" clip-rule="evenodd" d="M-218.649 320.008H2139.45V-859.073H-218.649V320.008Z" stroke="white" stroke-width="1.23568" stroke-linecap="round" stroke-linejoin="round"/>
<path fill-rule="evenodd" clip-rule="evenodd" d="M-122.651 272.02H2043.37V-811.075H-122.651V272.02Z" stroke="white" stroke-width="1.23568" stroke-linecap="round" stroke-linejoin="round"/>
<path fill-rule="evenodd" clip-rule="evenodd" d="M-41.0958 231.242H1961.77V-770.297H-41.0958V231.242Z" stroke="white" stroke-width="1.23568" stroke-linecap="round" stroke-linejoin="round"/>
<path fill-rule="evenodd" clip-rule="evenodd" d="M29.0217 196.174H1891.59V-735.253H29.0217V196.174Z" stroke="white" stroke-width="1.23568" stroke-linecap="round" stroke-linejoin="round"/>
<path fill-rule="evenodd" clip-rule="evenodd" d="M89.9708 165.707H1830.6V-704.771H89.9708V165.707Z" stroke="white" stroke-width="1.23568" stroke-linecap="round" stroke-linejoin="round"/>
<path fill-rule="evenodd" clip-rule="evenodd" d="M143.441 138.972H1777.1V-678.046H143.441V138.972Z" stroke="white" stroke-width="1.23568" stroke-linecap="round" stroke-linejoin="round"/>
<path fill-rule="evenodd" clip-rule="evenodd" d="M190.724 115.35H1729.79V-654.405H190.724V115.35Z" stroke="white" stroke-width="1.23568" stroke-linecap="round" stroke-linejoin="round"/>
<path fill-rule="evenodd" clip-rule="evenodd" d="M232.81 94.2939H1687.64V-633.354H232.81V94.2939Z" stroke="white" stroke-width="1.23568" stroke-linecap="round" stroke-linejoin="round"/>
<path fill-rule="evenodd" clip-rule="evenodd" d="M270.558 75.4227H1649.87V-614.482H270.558V75.4227Z" stroke="white" stroke-width="1.23568" stroke-linecap="round" stroke-linejoin="round"/>
<path fill-rule="evenodd" clip-rule="evenodd" d="M304.569 58.4102H1615.83V-597.484H304.569V58.4102Z" stroke="white" stroke-width="1.23568" stroke-linecap="round" stroke-linejoin="round"/>
<path fill-rule="evenodd" clip-rule="evenodd" d="M335.391 43.0026H1584.98V-582.064H335.391V43.0026Z" stroke="white" stroke-width="1.23568" stroke-linecap="round" stroke-linejoin="round"/>
<path d="M2556.31 644.776H-635.314" stroke="white" stroke-width="1.23568" stroke-linecap="round" stroke-linejoin="round"/>
<path d="M2556.31 790.285H-635.314" stroke="white" stroke-width="1.23568" stroke-linecap="round" stroke-linejoin="round"/>
<path d="M2556.31 990.874H-635.314" stroke="white" stroke-width="1.23568" stroke-linecap="round" stroke-linejoin="round"/>
<path fill-rule="evenodd" clip-rule="evenodd" d="M412.612 4.39125H1507.71V-543.455H412.612V4.39125Z" stroke="white" stroke-width="1.23568" stroke-linecap="round" stroke-linejoin="round"/>
<path fill-rule="evenodd" clip-rule="evenodd" d="M389.084 16.1597H1531.25V-555.224H389.084V16.1597Z" stroke="white" stroke-width="1.23568" stroke-linecap="round" stroke-linejoin="round"/>
<path fill-rule="evenodd" clip-rule="evenodd" d="M363.441 28.9812H1556.92V-568.035H363.441V28.9812Z" stroke="white" stroke-width="1.23568" stroke-linecap="round" stroke-linejoin="round"/>
<path d="M2556.31 534.41H-635.314" stroke="white" stroke-width="1.23568" stroke-linecap="round" stroke-linejoin="round"/>
</g>
<g filter="url(#filter0_f_1424_85)">
<ellipse cx="875.5" cy="1288" rx="1263.5" ry="136" fill="#08090E"/>
</g>
<path d="M960 6.5V-505.5" stroke="white" stroke-opacity="0.2"/>
<g filter="url(#filter1_f_1424_85)">
<ellipse cx="960.5" cy="-169.5" rx="1263.5" ry="335.5" fill="#07080C"/>
</g>
</g>
<defs>
<filter id="filter0_f_1424_85" x="-688" y="852" width="3127" height="872" filterUnits="userSpaceOnUse" color-interpolation-filters="sRGB">
<feFlood flood-opacity="0" result="BackgroundImageFix"/>
<feBlend mode="normal" in="SourceGraphic" in2="BackgroundImageFix" result="shape"/>
<feGaussianBlur stdDeviation="150" result="effect1_foregroundBlur_1424_85"/>
</filter>
<filter id="filter1_f_1424_85" x="-503" y="-705" width="2927" height="1071" filterUnits="userSpaceOnUse" color-interpolation-filters="sRGB">
<feFlood flood-opacity="0" result="BackgroundImageFix"/>
<feBlend mode="normal" in="SourceGraphic" in2="BackgroundImageFix" result="shape"/>
<feGaussianBlur stdDeviation="100" result="effect1_foregroundBlur_1424_85"/>
</filter>
<clipPath id="clip0_1424_85">
<rect width="1920" height="1275" fill="white"/>
</clipPath>
<clipPath id="clip1_1424_85">
<rect width="3193" height="2032" fill="white" transform="translate(-636 -705)"/>
</clipPath>
</defs>
</svg>
