<svg preserveAspectRatio="none" width="100%" height="100%" overflow="visible" style="display: block;" viewBox="0 0 32 32" fill="none" xmlns="http://www.w3.org/2000/svg">
<g id="conveyor_belt">
<mask id="mask0_1444_627" style="mask-type:alpha" maskUnits="userSpaceOnUse" x="0" y="0" width="32" height="32">
<rect id="Bounding box" width="32" height="32" fill="var(--fill-0, #D9D9D9)"/>
</mask>
<g mask="url(#mask0_1444_627)">
<path id="conveyor_belt_2" d="M6.66667 25.3333C5.91444 25.3333 5.282 25.0769 4.76933 24.564C4.25644 24.0513 4 23.4189 4 22.6667C4 21.9144 4.25644 21.282 4.76933 20.7693C5.282 20.2564 5.91444 20 6.66667 20H25.3333C26.0856 20 26.718 20.2564 27.2307 20.7693C27.7436 21.282 28 21.9144 28 22.6667C28 23.4189 27.7436 24.0513 27.2307 24.564C26.718 25.0769 26.0856 25.3333 25.3333 25.3333H6.66667ZM6.66667 24H25.3333C25.7111 24 26.0278 23.8722 26.2833 23.6167C26.5389 23.3611 26.6667 23.0444 26.6667 22.6667C26.6667 22.2889 26.5389 21.9722 26.2833 21.7167C26.0278 21.4611 25.7111 21.3333 25.3333 21.3333H6.66667C6.28889 21.3333 5.97222 21.4611 5.71667 21.7167C5.46111 21.9722 5.33333 22.2889 5.33333 22.6667C5.33333 23.0444 5.46111 23.3611 5.71667 23.6167C5.97222 23.8722 6.28889 24 6.66667 24ZM15.6817 17.3333C15.3794 17.3333 15.1261 17.2311 14.9217 17.0267C14.7174 16.8222 14.6153 16.5689 14.6153 16.2667V7.73267C14.6153 7.43044 14.7176 7.17722 14.922 6.973C15.1264 6.76878 15.3798 6.66667 15.682 6.66667H24.216C24.5182 6.66667 24.7714 6.76889 24.9757 6.97333C25.1799 7.17778 25.282 7.43111 25.282 7.73333V16.267C25.282 16.5694 25.1798 16.8228 24.9753 17.027C24.7709 17.2312 24.5176 17.3333 24.2153 17.3333H15.6817ZM15.9487 16H23.9487V8H15.9487V16ZM4 15.318V14.0077H11.9257V15.318H4ZM17.282 11.3333H22.6153V10.0077H17.282V11.3333ZM6.66667 11.3333H11.9257V10.0077H6.66667V11.3333Z" fill="var(--fill-0, #FB5802)"/>
</g>
</g>
</svg>
