<svg preserveAspectRatio="none" width="100%" height="100%" overflow="visible" style="display: block;" viewBox="0 0 32 32" fill="none" xmlns="http://www.w3.org/2000/svg">
<g id="handyman">
<mask id="mask0_1444_639" style="mask-type:alpha" maskUnits="userSpaceOnUse" x="0" y="0" width="32" height="32">
<rect id="Bounding box" width="32" height="32" fill="var(--fill-0, #D9D9D9)"/>
</mask>
<g mask="url(#mask0_1444_639)">
<path id="handyman_2" d="M24.223 27.8959C24.1016 27.849 23.9828 27.7674 23.8666 27.6512L17.2206 21.0305C17.1042 20.9143 17.0225 20.7955 16.9756 20.6742C16.9285 20.5529 16.905 20.4204 16.905 20.2769C16.905 20.1333 16.9285 20.0007 16.9756 19.8792C17.0225 19.7579 17.1042 19.6391 17.2206 19.5229L19.4383 17.3049C19.5545 17.1886 19.6734 17.1071 19.795 17.0602C19.9163 17.0131 20.0487 16.9895 20.1923 16.9895C20.3358 16.9895 20.4683 17.0131 20.5896 17.0602C20.711 17.1071 20.8297 17.1886 20.946 17.3049L27.5923 23.9512C27.7085 24.0674 27.7902 24.1862 27.8373 24.3075C27.8842 24.4289 27.9076 24.5613 27.9076 24.7049C27.9076 24.8486 27.8842 24.9812 27.8373 25.1025C27.7902 25.2239 27.7085 25.3426 27.5923 25.4589L25.3743 27.6512C25.2581 27.7674 25.1393 27.849 25.018 27.8959C24.8966 27.943 24.7642 27.9665 24.6206 27.9665C24.4768 27.9665 24.3443 27.943 24.223 27.8959ZM24.6206 26.5692L26.4846 24.7049L20.2 18.4205L18.336 20.2845L24.6206 26.5692ZM6.94495 27.8999C6.82095 27.8503 6.70084 27.7674 6.58462 27.6512L4.37429 25.4665C4.25806 25.3503 4.17517 25.2302 4.12562 25.1062C4.07606 24.9824 4.05129 24.8486 4.05129 24.7049C4.05129 24.5613 4.07606 24.4246 4.12562 24.2949C4.17517 24.1649 4.25806 24.0417 4.37429 23.9255L11.236 17.0639H14.018L15.0486 16.0332L9.39495 10.3792H7.49495L4.12829 7.01253L6.97162 4.16919L10.3383 7.53586V9.43586L15.9923 15.0895L20.0126 11.0692L17.554 8.61019L19.0616 7.10253H16.0383L15.4896 6.57919L19.2743 2.79486L19.7973 3.31786V6.36653L21.305 4.85886L26.6026 10.1049C26.9291 10.4144 27.171 10.7696 27.3283 11.1705C27.4854 11.5712 27.564 11.9955 27.564 12.4435C27.564 12.7717 27.5153 13.0905 27.418 13.3999C27.3204 13.7092 27.1768 14.0015 26.9873 14.2769L24.2563 11.5459L22.364 13.4382L20.9383 12.0125L14.936 18.0152V20.8409L8.09995 27.6512C7.98373 27.7674 7.86495 27.8503 7.74362 27.8999C7.62228 27.9494 7.48973 27.9742 7.34595 27.9742C7.2024 27.9742 7.06873 27.9494 6.94495 27.8999ZM7.34595 26.5435L13.9103 19.9792V18.1152H12.046L5.48195 24.6792L7.34595 26.5435ZM7.34595 26.5435L5.48195 24.6792L6.41795 25.6075L7.34595 26.5435Z" fill="var(--fill-0, #FB5802)"/>
</g>
</g>
</svg>
