<svg preserveAspectRatio="none" width="100%" height="100%" overflow="visible" style="display: block;" viewBox="0 0 32 32" fill="none" xmlns="http://www.w3.org/2000/svg">
<g id="directions_boat">
<mask id="mask0_1444_635" style="mask-type:alpha" maskUnits="userSpaceOnUse" x="0" y="0" width="32" height="32">
<rect id="Bounding box" width="32" height="32" fill="var(--fill-0, #D9D9D9)"/>
</mask>
<g mask="url(#mask0_1444_635)">
<path id="directions_boat_2" d="M5.682 28H5.33333V26.6667H5.682C6.612 26.6667 7.51756 26.5329 8.39867 26.2653C9.28 25.9978 10.1582 25.6084 11.0333 25.0973C11.7922 25.588 12.5653 25.9637 13.3527 26.2243C14.1398 26.485 15.0051 26.6153 15.9487 26.6153C16.8922 26.6153 17.7577 26.485 18.545 26.2243C19.3321 25.9637 20.1051 25.588 20.864 25.0973C21.7342 25.6084 22.6124 25.9978 23.4987 26.2653C24.3851 26.5329 25.2932 26.6667 26.223 26.6667H26.6667V28H26.223C25.305 28 24.402 27.9 23.514 27.7C22.626 27.5 21.7504 27.1914 20.8873 26.7743C20.0838 27.1794 19.2683 27.4838 18.441 27.6873C17.6137 27.8907 16.7829 27.9923 15.9487 27.9923C15.1144 27.9923 14.285 27.8907 13.4603 27.6873C12.6354 27.4838 11.8213 27.1794 11.018 26.7743C10.1547 27.1914 9.279 27.5 8.391 27.7C7.503 27.9 6.6 28 5.682 28ZM13.3847 22.5897C12.5982 22.0257 11.7948 21.2821 10.9743 20.359C10.2206 21.1983 9.54833 21.8333 8.95767 22.264C8.367 22.6949 7.71789 23.0504 7.01033 23.3307L5.023 16.2563C4.94611 15.9812 4.97522 15.718 5.11033 15.4667C5.24522 15.2153 5.45033 15.0427 5.72567 14.9487L7.359 14.4153V8.82067C7.359 8.224 7.56878 7.71578 7.98833 7.296C8.40811 6.87644 8.91622 6.66667 9.51267 6.66667H13.564V4H18.3847V6.66667H22.436C23.0324 6.66667 23.5406 6.87644 23.9603 7.296C24.3799 7.71578 24.5897 8.224 24.5897 8.82067V14.4153L26.223 14.9487C26.4983 15.0427 26.7034 15.2153 26.8383 15.4667C26.9734 15.718 27.0026 15.9812 26.9257 16.2563L24.9383 23.3307C24.2308 23.0504 23.5817 22.6949 22.991 22.264C22.4003 21.8333 21.7281 21.1983 20.9743 20.359C20.1539 21.2821 19.3504 22.0257 18.564 22.5897C17.7778 23.1539 16.9146 23.436 15.9743 23.436C15.0341 23.436 14.1709 23.1539 13.3847 22.5897ZM16.0153 22.1027C16.8751 22.1027 17.6187 21.815 18.246 21.2397C18.8736 20.6646 19.4693 20.053 20.0333 19.405L20.977 18.3307L21.882 19.346C22.2291 19.7444 22.5774 20.1261 22.927 20.491C23.2766 20.8559 23.6761 21.1666 24.1257 21.423L25.5307 16.123L15.9487 13.2027L6.42567 16.123L7.83067 21.423C8.28022 21.1666 8.67978 20.8559 9.02933 20.491C9.37911 20.1261 9.72744 19.7444 10.0743 19.346L10.9793 18.3307L11.923 19.405C12.4872 20.0581 13.0941 20.671 13.7437 21.2437C14.3932 21.8163 15.1504 22.1027 16.0153 22.1027ZM8.641 14.023L15.9487 11.795L23.2563 14.023V8H8.641V14.023Z" fill="var(--fill-0, #FB5802)"/>
</g>
</g>
</svg>
