<svg width="178" height="48" viewBox="0 0 178 48" fill="none" xmlns="http://www.w3.org/2000/svg">
<g clip-path="url(#clip0_1420_513)">
<path d="M19.2643 30.1596L19.2057 19.2705L13.9336 28.1343H11.3561L6.11364 19.5639V30.1596H0.754059V9.61432H5.52814L12.733 21.4718L19.7622 9.61432H24.5363L24.5949 30.1596H19.2643Z" fill="white"/>
<path d="M42.4308 26.1678H33.7615L32.1504 30.1596H26.2343L35.2845 9.61432H40.9953L50.0745 30.1596H44.0412L42.4301 26.1678H42.4308ZM40.7322 21.8825L38.0961 15.3077L35.4601 21.8825H40.7322Z" fill="white"/>
<path d="M68.1748 25.6687V30.1596H51.7145V9.61432H67.7939V14.1052H57.455V17.5683H66.5637V21.9122H57.455V25.6687H68.1742H68.1748Z" fill="white"/>
<path d="M73.7692 29.9546C72.207 29.5438 70.9376 28.9958 69.9615 28.311L71.8654 24.0258C72.7829 24.6325 73.8471 25.1219 75.058 25.4933C76.2682 25.8654 77.4592 26.0511 78.6308 26.0511C80.857 26.0511 81.9695 25.4933 81.9695 24.3785C81.9695 23.7911 81.6516 23.3565 81.0172 23.0722C80.3828 22.7885 79.3624 22.4899 77.9565 22.1766C76.4136 21.8439 75.1255 21.4867 74.0903 21.1056C73.0551 20.7239 72.1671 20.1126 71.4253 19.2712C70.6828 18.4304 70.3122 17.2949 70.3122 15.8668C70.3122 14.6146 70.6539 13.4849 71.3372 12.4771C72.0205 11.4694 73.0409 10.6724 74.3978 10.085C75.7548 9.49826 77.4193 9.20424 79.3913 9.20424C80.7386 9.20424 82.066 9.35641 83.3747 9.65945C84.6827 9.96314 85.8351 10.408 86.8304 10.9948L85.0437 15.309C83.0909 14.2522 81.1967 13.7241 79.3617 13.7241C78.2094 13.7241 77.3704 13.8957 76.8428 14.238C76.3158 14.5804 76.052 15.026 76.052 15.5734C76.052 16.1208 76.3641 16.5322 76.9895 16.8062C77.6142 17.0802 78.6192 17.3639 80.0064 17.6573C81.5686 17.99 82.8619 18.3472 83.8868 18.7289C84.9118 19.1106 85.8003 19.7174 86.5518 20.5485C87.3033 21.3803 87.6791 22.5106 87.6791 23.9388C87.6791 25.1716 87.3374 26.2864 86.6541 27.2845C85.9702 28.2826 84.9452 29.0796 83.5786 29.6767C82.212 30.2731 80.552 30.5723 78.5999 30.5723C76.9399 30.5723 75.3295 30.3666 73.7673 29.9558L73.7692 29.9546Z" fill="white"/>
<path d="M94.4168 14.2226H88.1198V9.61432H106.483V14.2226H100.216V30.1596H94.4168V14.2226Z" fill="white"/>
<path d="M117.613 24.7002H114.45V30.1596H108.651V9.61432H118.023C119.878 9.61432 121.488 9.92252 122.855 10.5389C124.222 11.1553 125.277 12.0355 126.018 13.1806C126.76 14.3251 127.132 15.6707 127.132 17.2163C127.132 18.7618 126.785 19.9998 126.092 21.1056C125.399 22.2114 124.408 23.0773 123.119 23.7034L127.542 30.1602H121.333L117.614 24.7009L117.613 24.7002ZM120.366 14.9853C119.761 14.4573 118.862 14.1929 117.672 14.1929H114.45V20.21H117.672C118.862 20.21 119.761 19.9508 120.366 19.4324C120.971 18.914 121.274 18.1751 121.274 17.2163C121.274 16.2575 120.971 15.5141 120.366 14.986V14.9853Z" fill="white"/>
<path d="M144.732 26.1678H136.063L134.452 30.1596H128.535L137.586 9.61432H143.296L152.376 30.1596H146.342L144.731 26.1678H144.732ZM143.033 21.8825L140.397 15.3077L137.761 21.8825H143.033Z" fill="white"/>
<path d="M153.344 9.61432H159.143V25.5513H168.925V30.1596H153.344V9.61432Z" fill="white"/>
<path d="M177.606 0.602875H162.09V5.09506H177.606V0.602875Z" fill="#FF4713"/>
<path d="M7.07684 45.0959H2.93136L2.11423 47.0186H0.526947L4.25807 38.71H5.77394L9.51664 47.0186H7.90554L7.07619 45.0959H7.07684ZM6.5679 43.8857L5.00442 40.2536L3.45252 43.8857H6.5679Z" fill="white"/>
<path d="M17.9382 38.71V47.0186H16.6707L12.0986 41.3923V47.0186H10.5705V38.71H11.838L16.4101 44.3364V38.71H17.9382Z" fill="white"/>
<path d="M29.6527 45.7252V47.0193H23.4342V38.7106H29.4867V40.0047H24.9738V42.1654H28.9771V43.4356H24.9738V45.7265H29.6527V45.7252Z" fill="white"/>
<path d="M56.5156 45.7252V47.0193H50.2971V38.7106H56.3496V40.0047H51.8368V42.1654H55.84V43.4356H51.8368V45.7265H56.5156V45.7252Z" fill="white"/>
<path d="M67.7206 47.1495L66.6782 46.1411C65.9042 46.8059 64.9764 47.1379 63.8949 47.1379C63.3184 47.1379 62.8011 47.0432 62.343 46.8529C61.8848 46.6634 61.5258 46.4003 61.2652 46.0637C61.0047 45.7272 60.8741 45.3454 60.8741 44.9186C60.8741 44.4041 61.024 43.9508 61.3244 43.5594C61.6243 43.168 62.1139 42.7824 62.7933 42.402C62.4613 42.0693 62.2246 41.7592 62.0824 41.4703C61.9402 41.1815 61.8694 40.8829 61.8694 40.5741C61.8694 39.9886 62.0888 39.5153 62.527 39.1556C62.9651 38.7958 63.5474 38.6152 64.2738 38.6152C64.9449 38.6152 65.4821 38.7797 65.8843 39.1078C66.287 39.436 66.4884 39.8816 66.4884 40.4432C66.4884 40.8707 66.3559 41.2504 66.0914 41.5825C65.827 41.9152 65.3946 42.2511 64.7943 42.5916L66.583 44.3009C66.7805 43.9134 66.9343 43.4459 67.045 42.9004L68.2411 43.2925C68.0828 44.0282 67.8344 44.6613 67.4947 45.1913L68.537 46.1882L67.7199 47.1495H67.7206ZM65.8019 45.2977L63.6105 43.1964C63.1369 43.4575 62.803 43.709 62.61 43.9501C62.4163 44.1919 62.3198 44.4627 62.3198 44.7632C62.3198 45.1114 62.4736 45.3919 62.7818 45.6059C63.09 45.8194 63.4966 45.9264 64.0017 45.9264C64.6888 45.9264 65.2885 45.7168 65.8019 45.2977ZM63.5037 39.9151C63.3139 40.0776 63.2193 40.2891 63.2193 40.5502C63.2193 40.7398 63.2707 40.9203 63.3731 41.0905C63.4754 41.2608 63.6729 41.4922 63.9656 41.785C64.4392 41.5238 64.7692 41.2962 64.9545 41.1028C65.1398 40.9087 65.2331 40.6972 65.2331 40.4677C65.2331 40.2227 65.1482 40.0286 64.9784 39.8861C64.8085 39.7436 64.5736 39.672 64.2738 39.672C63.9502 39.672 63.6935 39.7533 63.5037 39.9151Z" fill="white"/>
<path d="M74.6732 40.0041V42.5323H78.6765V43.8379H74.6732V47.0186H73.1336V38.71H79.1861V40.0041H74.6732Z" fill="white"/>
<path d="M80.6782 38.71H82.2178V47.0186H80.6782V38.71Z" fill="white"/>
<path d="M91.8239 38.71V47.0186H90.5564L85.9844 41.3923V47.0186H84.4563V38.71H85.7238L90.2958 44.3364V38.71H91.8239Z" fill="white"/>
<path d="M95.62 46.586C94.9451 46.2178 94.4155 45.7097 94.0327 45.0604C93.6499 44.4118 93.4582 43.68 93.4582 42.8643C93.4582 42.0487 93.6518 41.3175 94.0385 40.6682C94.4252 40.0196 94.9567 39.5108 95.6316 39.1427C96.3065 38.7745 97.0625 38.5907 97.8996 38.5907C98.5784 38.5907 99.1986 38.7094 99.759 38.9466C100.319 39.1839 100.794 39.5282 101.18 39.9789L100.186 40.9165C99.5853 40.2678 98.8473 39.9435 97.971 39.9435C97.4022 39.9435 96.8933 40.0679 96.4429 40.3174C95.9925 40.567 95.6412 40.9132 95.3884 41.3562C95.1355 41.7992 95.0094 42.3021 95.0094 42.8637C95.0094 43.4253 95.1355 43.9282 95.3884 44.3712C95.6412 44.8141 95.9925 45.1604 96.4429 45.4099C96.8933 45.6595 97.4022 45.7839 97.971 45.7839C98.8473 45.7839 99.586 45.4557 100.186 44.7987L101.18 45.7484C100.793 46.1998 100.318 46.5434 99.7533 46.7807C99.1883 47.018 98.5668 47.1366 97.888 47.1366C97.0509 47.1366 96.2949 46.9529 95.62 46.5847V46.586Z" fill="white"/>
<path d="M107.861 45.0959H103.715L102.898 47.0186H101.311L105.042 38.71H106.558L110.301 47.0186H108.69L107.86 45.0959H107.861ZM107.352 43.8857L105.788 40.2536L104.237 43.8857H107.352Z" fill="white"/>
<path d="M118.722 38.71V47.0186H117.455L112.883 41.3923V47.0186H111.355V38.71H112.622L117.194 44.3364V38.71H118.722Z" fill="white"/>
<path d="M122.631 40.0157H119.883V38.71H126.919V40.0157H124.171V47.0186H122.631V40.0157Z" fill="white"/>
<path d="M128.079 38.71H129.619V47.0186H128.079V38.71Z" fill="white"/>
<path d="M138.077 45.7252V47.0193H131.858V38.7106H137.911V40.0047H133.398V42.1654H137.401V43.4356H133.398V45.7265H138.077V45.7252Z" fill="white"/>
<path d="M145.218 47.0193L143.524 44.5859C143.454 44.5936 143.347 44.5975 143.205 44.5975H141.333V47.0186H139.794V38.71H143.205C143.924 38.71 144.55 38.8286 145.083 39.0659C145.615 39.3032 146.024 39.6437 146.308 40.0866C146.593 40.5296 146.735 41.0557 146.735 41.665C146.735 42.2744 146.583 42.8282 146.279 43.2796C145.974 43.7309 145.539 44.0668 144.97 44.2886L146.877 47.0186H145.219L145.218 47.0193ZM144.661 40.4432C144.314 40.1582 143.804 40.0157 143.133 40.0157H141.333V43.3273H143.133C143.804 43.3273 144.314 43.1828 144.661 42.894C145.009 42.6051 145.182 42.1957 145.182 41.6657C145.182 41.1357 145.009 40.7282 144.661 40.4432Z" fill="white"/>
<path d="M148.452 38.71H149.991V47.0186H148.452V38.71Z" fill="white"/>
<path d="M155.328 46.8233C154.882 46.6137 154.516 46.3184 154.232 45.9386L155.108 44.8825C155.566 45.5157 156.115 45.8322 156.755 45.8322C157.616 45.8322 158.046 45.3216 158.046 44.3009V40.0041H155.097V38.71H159.586V44.2177C159.586 45.1907 159.349 45.9206 158.875 46.4074C158.401 46.8942 157.706 47.1373 156.79 47.1373C156.261 47.1373 155.773 47.0322 155.328 46.8226V46.8233Z" fill="white"/>
<path d="M169.322 38.71L165.709 47.0186H164.193L160.569 38.71H162.239L164.999 45.1198L167.782 38.71H169.322Z" fill="white"/>
<path d="M48.2794 38.5927H45.0508V38.5914C44.1982 38.5914 43.43 38.7751 42.7467 39.1433C42.0634 39.5115 41.5287 40.0202 41.1421 40.6688C40.7547 41.3181 40.5617 42.05 40.5617 42.865C40.5617 43.68 40.7554 44.4118 41.1421 45.0611C41.5287 45.7097 42.0621 46.2185 42.7409 46.5866C43.4159 46.9522 44.1732 47.136 45.0122 47.1379H48.28V45.7871H48.2729V42.7702H46.8163V45.7852H45.1106C44.5341 45.7852 44.0187 45.6588 43.5651 45.4054C43.1109 45.152 42.7557 44.8045 42.499 44.3609C42.2423 43.9179 42.1142 43.4195 42.1142 42.8656C42.1142 42.3117 42.2423 41.7895 42.499 41.3459C42.7557 40.9029 43.1109 40.5586 43.5651 40.3136C44.0194 40.0686 44.538 39.9454 45.1228 39.9454L48.2807 39.9448V38.5939L48.2794 38.5927Z" fill="white"/>
<path d="M38.9506 40.6863C38.5716 40.057 38.0389 39.5708 37.3517 39.2265C36.6646 38.8822 35.879 38.71 34.9949 38.71H31.3706V40.015H33.2391L34.9235 40.0157C35.5315 40.0157 36.0662 40.1324 36.5282 40.3658C36.9901 40.5992 37.3453 40.9319 37.5943 41.3626C37.8433 41.794 37.9675 42.2943 37.9675 42.8643C37.9675 43.4343 37.8433 43.9347 37.5943 44.366C37.3453 44.7974 36.9901 45.1301 36.5282 45.3628C36.0662 45.5963 35.5309 45.713 34.9235 45.713H32.9096H31.37V47.0186H34.9943C35.8783 47.0186 36.6646 46.8465 37.3511 46.5022C38.0382 46.1579 38.571 45.6711 38.9499 45.0424C39.3289 44.4131 39.5187 43.6877 39.5187 42.8643C39.5187 42.0409 39.3289 41.3156 38.9499 40.6863H38.9506Z" fill="white"/>
</g>
<defs>
<clipPath id="clip0_1420_513">
<rect width="178" height="48" fill="white"/>
</clipPath>
</defs>
</svg>
