<svg width="182" height="154" viewBox="0 0 182 154" fill="none" xmlns="http://www.w3.org/2000/svg">
<g opacity="0.2" clip-path="url(#clip0_1480_384)">
<path d="M2.34 104.83L18.71 148.5L31.86 105.86L2.34 104.83Z" stroke="#FB5802" stroke-linecap="round" stroke-linejoin="round"/>
<path d="M0.5 105.38L2.34 104.83L9.69 86.8096L0.5 105.38Z" stroke="#FB5802" stroke-linecap="round" stroke-linejoin="round"/>
<path d="M1.57 51.62L0.5 105.38L9.69 86.81L1.57 51.62Z" stroke="#FB5802" stroke-linecap="round" stroke-linejoin="round"/>
<path d="M9.68984 86.8096L2.33984 104.83L31.8598 105.86L9.68984 86.8096Z" stroke="#FB5802" stroke-linecap="round" stroke-linejoin="round"/>
<path d="M31.86 105.86L18.71 148.5L44.53 135.81L31.86 105.86Z" stroke="#FB5802" stroke-linecap="round" stroke-linejoin="round"/>
<path d="M34.6199 72.6396L9.68994 86.8096L41.4099 79.4296L34.6199 72.6396Z" stroke="#FB5802" stroke-linecap="round" stroke-linejoin="round"/>
<path d="M9.68994 86.8097L31.8599 105.86L41.4099 79.4297L9.68994 86.8097Z" stroke="#FB5802" stroke-linecap="round" stroke-linejoin="round"/>
<path d="M37.6 24.01L1.57 51.62L40.9 53.7L37.6 24.01Z" stroke="#FB5802" stroke-linecap="round" stroke-linejoin="round"/>
<path d="M15.96 64.62L9.69 86.81L34.62 72.64L15.96 64.62Z" stroke="#FB5802" stroke-linecap="round" stroke-linejoin="round"/>
<path d="M1.57 51.62L15.96 64.62L40.9 53.7L1.57 51.62Z" stroke="#FB5802" stroke-linecap="round" stroke-linejoin="round"/>
<path d="M53.6 65.95L41.41 79.43L55.98 91.55L53.6 65.95Z" stroke="#FB5802" stroke-linecap="round" stroke-linejoin="round"/>
<path d="M46.01 0.5L37.6 24.01L52.31 27.32L46.01 0.5Z" stroke="#FB5802" stroke-linecap="round" stroke-linejoin="round"/>
<path d="M37.6 24.01L40.9 53.7L50.19 47.21L37.6 24.01Z" stroke="#FB5802" stroke-linecap="round" stroke-linejoin="round"/>
<path d="M37.6 24.01L50.19 47.21L50.41 28.32L37.6 24.01Z" stroke="#FB5802" stroke-linecap="round" stroke-linejoin="round"/>
<path d="M40.9 53.7L34.62 72.64L53.6 65.95L40.9 53.7Z" stroke="#FB5802" stroke-linecap="round" stroke-linejoin="round"/>
<path d="M34.62 72.64L41.41 79.43L53.6 65.95L34.62 72.64Z" stroke="#FB5802" stroke-linecap="round" stroke-linejoin="round"/>
<path d="M41.4099 79.4297L31.8599 105.86L55.9799 91.5497L41.4099 79.4297Z" stroke="#FB5802" stroke-linecap="round" stroke-linejoin="round"/>
<path d="M52.3102 27.3203L50.4102 28.3203L56.8902 40.9903L52.3102 27.3203Z" stroke="#FB5802" stroke-linecap="round" stroke-linejoin="round"/>
<path d="M50.19 47.21L53.6 65.95L56.89 40.99L50.19 47.21Z" stroke="#FB5802" stroke-linecap="round" stroke-linejoin="round"/>
<path d="M50.4099 28.3203L50.1899 47.2103L56.8899 40.9903L50.4099 28.3203Z" stroke="#FB5802" stroke-linecap="round" stroke-linejoin="round"/>
<path d="M53.6 65.95L55.98 91.55L59.07 91.15L53.6 65.95Z" stroke="#FB5802" stroke-linecap="round" stroke-linejoin="round"/>
<path d="M52.31 27.32L37.6 24.01L72.09 13.01L52.31 27.32Z" stroke="#FB5802" stroke-linecap="round" stroke-linejoin="round"/>
<path d="M50.41 28.32L52.31 27.32L72.09 13.01L50.41 28.32Z" stroke="#FB5802" stroke-linecap="round" stroke-linejoin="round"/>
<path d="M37.6 24.01L50.41 28.32L72.09 13.01L37.6 24.01Z" stroke="#FB5802" stroke-linecap="round" stroke-linejoin="round"/>
<path d="M72.09 13.01L56.89 40.99L79.19 64.76L72.09 13.01Z" stroke="#FB5802" stroke-linecap="round" stroke-linejoin="round"/>
<path d="M72.09 13.01L79.19 64.76L94.63 67.97L72.09 13.01Z" stroke="#FB5802" stroke-linecap="round" stroke-linejoin="round"/>
<path d="M31.8599 105.86L44.5299 135.81L74.7299 112.61L31.8599 105.86Z" stroke="#FB5802" stroke-linecap="round" stroke-linejoin="round"/>
<path d="M55.98 91.55L31.86 105.86L74.73 112.61L55.98 91.55Z" stroke="#FB5802" stroke-linecap="round" stroke-linejoin="round"/>
<path d="M56.89 40.99L53.6 65.95L79.19 64.76L56.89 40.99Z" stroke="#FB5802" stroke-linecap="round" stroke-linejoin="round"/>
<path d="M74.73 112.61L95.77 149.45L98.98 137.09L74.73 112.61Z" stroke="#FB5802" stroke-linecap="round" stroke-linejoin="round"/>
<path d="M74.7298 112.61L44.5298 135.81L95.7698 149.45L74.7298 112.61Z" stroke="#FB5802" stroke-linecap="round" stroke-linejoin="round"/>
<path d="M44.5298 135.81L46.1498 152.56L95.7698 149.45L44.5298 135.81Z" stroke="#FB5802" stroke-linecap="round" stroke-linejoin="round"/>
<path d="M77.89 68.16L86.41 90.79L96.49 75.91L77.89 68.16Z" stroke="#FB5802" stroke-linecap="round" stroke-linejoin="round"/>
<path d="M94.6301 67.9697L77.8901 68.1597L96.4901 75.9097L94.6301 67.9697Z" stroke="#FB5802" stroke-linecap="round" stroke-linejoin="round"/>
<path d="M74.73 112.61L98.98 137.09L103.74 118.61L74.73 112.61Z" stroke="#FB5802" stroke-linecap="round" stroke-linejoin="round"/>
<path d="M84.89 101.47L74.73 112.61L103.74 118.61L84.89 101.47Z" stroke="#FB5802" stroke-linecap="round" stroke-linejoin="round"/>
<path d="M146.03 36.91L108.14 107.76L181.38 78.72L146.03 36.91Z" stroke="#FB5802" stroke-linecap="round" stroke-linejoin="round"/>
<path d="M96.49 75.91L86.41 90.79L108.14 107.76L96.49 75.91Z" stroke="#FB5802" stroke-linecap="round" stroke-linejoin="round"/>
<path d="M86.41 90.79L84.89 101.47L108.14 107.76L86.41 90.79Z" stroke="#FB5802" stroke-linecap="round" stroke-linejoin="round"/>
<path d="M84.8901 101.47L103.74 118.61L108.14 107.76L84.8901 101.47Z" stroke="#FB5802" stroke-linecap="round" stroke-linejoin="round"/>
<path d="M108.14 107.76L103.74 118.61L112.64 147.33L108.14 107.76Z" stroke="#FB5802" stroke-linecap="round" stroke-linejoin="round"/>
<path d="M103.74 118.61L98.98 137.09L112.64 147.33L103.74 118.61Z" stroke="#FB5802" stroke-linecap="round" stroke-linejoin="round"/>
<path d="M72.09 13.01L94.63 67.97L117.28 3.76L72.09 13.01Z" stroke="#FB5802" stroke-linecap="round" stroke-linejoin="round"/>
<path d="M117.28 3.76L94.63 67.97L146.03 36.91L117.28 3.76Z" stroke="#FB5802" stroke-linecap="round" stroke-linejoin="round"/>
<path d="M96.49 75.91L108.14 107.76L146.03 36.91L96.49 75.91Z" stroke="#FB5802" stroke-linecap="round" stroke-linejoin="round"/>
<path d="M94.63 67.97L96.49 75.91L146.03 36.91L94.63 67.97Z" stroke="#FB5802" stroke-linecap="round" stroke-linejoin="round"/>
<path d="M117.28 3.76L146.03 36.91L150.88 35.61L117.28 3.76Z" stroke="#FB5802" stroke-linecap="round" stroke-linejoin="round"/>
</g>
<defs>
<clipPath id="clip0_1480_384">
<rect width="181.88" height="153.06" fill="white"/>
</clipPath>
</defs>
</svg>
