<svg width="1924" height="761" viewBox="0 0 1924 761" fill="none" xmlns="http://www.w3.org/2000/svg">
<rect width="1920" height="750" transform="translate(4)" fill="black"/>
<rect width="1920" height="750" transform="translate(4)" fill="url(#paint0_linear_1428_466)" fill-opacity="0.6"/>
<g opacity="0.08" clip-path="url(#clip0_1428_466)">
<path d="M1091.89 -53.9276V1300.19" stroke="white" stroke-width="1.24605" stroke-linecap="round" stroke-linejoin="round"/>
<path d="M963.688 -53.9276L286.323 1300.19" stroke="white" stroke-width="1.24605" stroke-linecap="round" stroke-linejoin="round"/>
<path d="M1218.27 -53.9276L1893.32 1300.19" stroke="white" stroke-width="1.24605" stroke-linecap="round" stroke-linejoin="round"/>
<path d="M581.448 -53.9276L-517.306 495.409" stroke="white" stroke-width="1.24605" stroke-linecap="round" stroke-linejoin="round"/>
<path d="M709.085 -53.9276L-517.308 764.251" stroke="white" stroke-width="1.24605" stroke-linecap="round" stroke-linejoin="round"/>
<path d="M836.377 -53.9276L-517.228 1300.27" stroke="white" stroke-width="1.24605" stroke-linecap="round" stroke-linejoin="round"/>
<path d="M-517.307 94.2859L581.447 -180.986" stroke="white" stroke-width="1.24605" stroke-linecap="round" stroke-linejoin="round"/>
<path d="M1601.62 -53.9276L2701.09 495.349" stroke="white" stroke-width="1.24605" stroke-linecap="round" stroke-linejoin="round"/>
<path d="M1472.87 -53.9276L2701.09 766.404" stroke="white" stroke-width="1.24605" stroke-linecap="round" stroke-linejoin="round"/>
<path d="M2701.09 94.6114L1601.62 -181.064" stroke="white" stroke-width="1.24605" stroke-linecap="round" stroke-linejoin="round"/>
<path d="M1345.58 -53.9276L2696.8 1300.19" stroke="white" stroke-width="1.24605" stroke-linecap="round" stroke-linejoin="round"/>
<path fill-rule="evenodd" clip-rule="evenodd" d="M-350.564 412.045H2534.34V-1030.32H-350.564V412.045Z" stroke="white" stroke-width="1.24605" stroke-linecap="round" stroke-linejoin="round"/>
<path fill-rule="evenodd" clip-rule="evenodd" d="M-212.781 343.158H2396.46V-961.448H-212.781V343.158Z" stroke="white" stroke-width="1.24605" stroke-linecap="round" stroke-linejoin="round"/>
<path fill-rule="evenodd" clip-rule="evenodd" d="M-97.1486 285.346H2280.73V-903.627H-97.1486V285.346Z" stroke="white" stroke-width="1.24605" stroke-linecap="round" stroke-linejoin="round"/>
<path fill-rule="evenodd" clip-rule="evenodd" d="M-0.344666 236.955H2183.85V-855.225H-0.344666V236.955Z" stroke="white" stroke-width="1.24605" stroke-linecap="round" stroke-linejoin="round"/>
<path fill-rule="evenodd" clip-rule="evenodd" d="M81.8944 195.835H2101.56V-814.106H81.8944V195.835Z" stroke="white" stroke-width="1.24605" stroke-linecap="round" stroke-linejoin="round"/>
<path fill-rule="evenodd" clip-rule="evenodd" d="M152.6 160.473H2030.8V-778.767H152.6V160.473Z" stroke="white" stroke-width="1.24605" stroke-linecap="round" stroke-linejoin="round"/>
<path fill-rule="evenodd" clip-rule="evenodd" d="M214.06 129.751H1969.29V-748.03H214.06V129.751Z" stroke="white" stroke-width="1.24605" stroke-linecap="round" stroke-linejoin="round"/>
<path fill-rule="evenodd" clip-rule="evenodd" d="M267.979 102.791H1915.34V-721.081H267.979V102.791Z" stroke="white" stroke-width="1.24605" stroke-linecap="round" stroke-linejoin="round"/>
<path fill-rule="evenodd" clip-rule="evenodd" d="M315.658 78.9712H1867.63V-697.241H315.658V78.9712Z" stroke="white" stroke-width="1.24605" stroke-linecap="round" stroke-linejoin="round"/>
<path fill-rule="evenodd" clip-rule="evenodd" d="M358.098 57.7381H1825.13V-676.014H358.098V57.7381Z" stroke="white" stroke-width="1.24605" stroke-linecap="round" stroke-linejoin="round"/>
<path fill-rule="evenodd" clip-rule="evenodd" d="M396.162 38.7087H1787.05V-656.984H396.162V38.7087Z" stroke="white" stroke-width="1.24605" stroke-linecap="round" stroke-linejoin="round"/>
<path fill-rule="evenodd" clip-rule="evenodd" d="M430.459 21.5534H1752.72V-639.843H430.459V21.5534Z" stroke="white" stroke-width="1.24605" stroke-linecap="round" stroke-linejoin="round"/>
<path fill-rule="evenodd" clip-rule="evenodd" d="M461.54 6.01657H1721.62V-624.293H461.54V6.01657Z" stroke="white" stroke-width="1.24605" stroke-linecap="round" stroke-linejoin="round"/>
<path d="M2701.09 612.838H-517.308" stroke="white" stroke-width="1.24605" stroke-linecap="round" stroke-linejoin="round"/>
<path d="M2701.09 759.568H-517.308" stroke="white" stroke-width="1.24605" stroke-linecap="round" stroke-linejoin="round"/>
<path d="M2701.09 501.547H-517.308" stroke="white" stroke-width="1.24605" stroke-linecap="round" stroke-linejoin="round"/>
</g>
<defs>
<linearGradient id="paint0_linear_1428_466" x1="2635.5" y1="-160.417" x2="371.826" y2="1296.89" gradientUnits="userSpaceOnUse">
<stop stop-color="#07080C" stop-opacity="0"/>
<stop offset="0.680126" stop-color="#07080C"/>
<stop offset="1" stop-color="#07080C"/>
</linearGradient>
<clipPath id="clip0_1428_466">
<rect width="1924" height="761" fill="white"/>
</clipPath>
</defs>
</svg>
